<?xml version="1.0" encoding="UTF-8" standalone="no"?> <!-- Created with Vectornator for iOS (http://vectornator.io/) --><!DOCTYPE svg PUBLIC "-//W3C//DTD SVG 1.1//EN" "http://www.w3.org/Graphics/SVG/1.1/DTD/svg11.dtd">
<svg height="100%" style="fill-rule:nonzero;clip-rule:evenodd;stroke-linecap:round;stroke-linejoin:round;" xmlnsXlink="http://www.w3.org/1999/xlink" xmlns="http://www.w3.org/2000/svg" xmlSpace="preserve" width="100%" xmlnsVectornator="http://vectornator.io" version="1.1" viewBox="0 0 3370.82 2384.24">
<metadata>
<vectornatorSetting key="DimensionsVisible" value="1"/>
<vectornatorSetting key="PencilOnly" value="0"/>
<vectornatorSetting key="SnapToPoints" value="0"/>
<vectornatorSetting key="OutlineMode" value="0"/>
<vectornatorSetting key="CMYKEnabledKey" value="0"/>
<vectornatorSetting key="RulersVisible" value="1"/>
<vectornatorSetting key="SnapToEdges" value="0"/>
<vectornatorSetting key="GuidesVisible" value="1"/>
<vectornatorSetting key="DisplayWhiteBackground" value="0"/>
<vectornatorSetting key="doHistoryDisabled" value="0"/>
<vectornatorSetting key="SnapToGuides" value="1"/>
<vectornatorSetting key="TimeLapseWatermarkDisabled" value="0"/>
<vectornatorSetting key="Units" value="Millimeters"/>
<vectornatorSetting key="DynamicGuides" value="0"/>
<vectornatorSetting key="IsolateActiveLayer" value="0"/>
<vectornatorSetting key="SnapToGrid" value="0"/>
</metadata>
<defs/>
<g id="Layer 2" vectornatorLayerName="Layer 2">
<path d="M-41.9209+1488.6C-41.9209+1488.6+385.449+1600.72+743.757+1565.93C1008.49+1540.23+1675.77+1440.91+2321.88+1427.14C2785.05+1417.27+3392.73+1488.6+3392.73+1488.6L3392.73+2436.36L-41.9209+2436.36L-41.9209+1488.6Z" opacity="1" fill="#87be6e"/>
</g>
<g id="Layer 1" vectornatorLayerName="Layer 1">
<path d="M1986.14+1331.1C1995.49+1314.78+2006.54+1307.73+2025.09+1298.8C2039.45+1291.89+2061.97+1293.51+2076.83+1297.74C2091.69+1301.98+2103.03+1318.61+2109.42+1336.06C2115.82+1353.52+2116.37+1372.31+2114.9+1386.76C2112.25+1412.8+2097.07+1433.05+2097.07+1433.05L2064.1+1459.39C2064.1+1459.39+2038.15+1467.63+2020.96+1464.97C2003.77+1462.31+1989.49+1459.36+1976.98+1443.51C1964.46+1427.66+1961.34+1411.9+1964+1388.61C1967.14+1361.1+1976.8+1347.42+1986.14+1331.1Z" opacity="1" fill="#debd6c"/>
<path d="M1957.89+1476.17L1978.11+1456.53L2002.84+1466.65L2053.59+1467.1L2081.6+1457.13L2130.72+1485.79C2130.72+1485.79+2141.23+1506.26+2149.61+1522.21C2157.99+1538.16+2155.36+1548.6+2155.36+1548.6L2115.57+1538.99L2103.42+1557.1L2113.88+1663.25L1948.75+1672.35L1951.62+1621.13L1959.27+1555.76L1949.79+1546.38L1931.37+1546.38L1933.95+1533.82L1935.79+1512.76L1945.37+1493.54L1957.89+1476.17Z" opacity="1" fill="#ffffff"/>
<path d="M2035.89+1904.34L2018.77+1902.17L2008.62+1919.33L2004.48+1939.59L2013.37+1953.04L2030.15+1968.62L2078.89+2002.6L2118.18+2018.46L2134.44+2015.66L2147.02+2004.16L2139.39+1978.4L2124.67+1958.26L2105.3+1939.97L2086.61+1931.74L2069.63+1940.42L2053.1+1930.82L2043.72+1921.46L2035.89+1904.34Z" opacity="1" fill="#ffe6ae"/>
<path d="M1952.73+1338.57C1937.6+1338.82+1944.23+1336.97+1943.19+1335.5C1941.13+1332.56+1947.19+1327.82+1958.9+1321.07C1969+1315.25+1961.52+1305+1961.52+1305C1961.52+1305+1955.13+1303.68+1957.01+1292.16C1958.88+1280.64+1987.72+1275.54+1996.46+1277.64C2005.2+1279.74+1985.92+1282.61+1989.07+1288.49C1992.88+1295.62+1997.43+1284.51+1999.23+1285.28C2016.43+1292.63+2032.69+1280.31+2014.05+1276.17C1995.57+1272.06+2064.82+1242.08+2057.54+1263.5C2049.91+1285.9+2083.59+1251.05+2068.13+1268.75C2051.11+1288.23+2056.27+1286.48+2076.98+1285.8C2092.76+1285.29+2083.53+1282.19+2082.85+1275.19C2082.18+1268.19+2110.87+1279.09+2119.58+1286.7C2120.38+1287.39+2120.32+1298.33+2125.65+1297.06C2128.21+1296.46+2131.24+1296.59+2137.39+1299.54C2147.78+1304.53+2147.33+1319.55+2142.9+1325.71C2141.26+1327.98+2140.36+1321.72+2132.67+1320.13C2130.35+1319.65+2131.09+1316.67+2126.39+1318.15C2119.74+1320.25+2127.5+1323.14+2128.34+1324.64C2130.05+1327.72+2136.32+1329.7+2129.96+1333.03C2117.44+1339.58+2138.2+1334.62+2132.86+1347.21C2125.71+1364.09+2103.61+1369.21+2103.61+1369.21C2103.61+1369.21+2096.29+1351.7+2083.67+1349.14C2073.98+1347.17+2058.34+1360.97+2057.71+1355.93C2056.26+1344.32+2055.07+1344.96+2047.5+1338.95C2043.33+1335.64+2050.52+1321.08+2040+1326.55C2031.41+1331.02+2028.05+1336.81+2019.02+1344.83C2009.99+1352.86+1996.57+1342.56+1996.57+1342.56C1996.57+1342.56+1973.56+1384.7+1969.42+1372C1966.04+1361.65+1986.06+1347.12+1961.82+1342.01C1956.3+1340.85+1965.97+1338.36+1952.73+1338.57Z" opacity="1" fill="#000000"/>
<path d="M1973.5+1714.41C1983.57+1699.95+2068.07+1703.82+2083.39+1706.97C2088.03+1707.93+2102.28+1724.42+2110.67+1731.42C2120.53+1739.64+2123.77+1757.3+2126.9+1776.07C2130.03+1794.83+2134.52+1804.78+2126.9+1820.72C2119.27+1836.66+2124.69+1841.98+2112.89+1874.94C2101.09+1907.89+2077.21+1939.27+2065.81+1953.54C2054.41+1967.8+2028.03+1946.74+2022.87+1922.29C2017.7+1897.84+2043.69+1866.5+2047.41+1854.8C2051.13+1843.09+2070.53+1778.18+2062.74+1780.32C2054.94+1782.46+2028.58+1781.14+2028.58+1781.14L2009.64+1814.34L2009.57+1862.3C2009.57+1862.3+2024.76+1974.44+2029+1991.03C2033.24+2007.63+2001.39+1999.78+1981.97+1993.53C1960.55+1986.64+1948.22+1901.04+1948.22+1901.04L1942.24+1830.77L1944+1786.7L1958.01+1752.68C1958.01+1752.68+1963.43+1728.87+1973.5+1714.41Z" opacity="1" fill="#93d0ff"/>
<path d="M2017.18+1956.17L2034.03+1954.2L2044.02+1969.74L2048.09+1988.07L2039.34+2000.24L2022.84+2014.34L1974.87+2045.1L1936.21+2059.45L1920.21+2056.91L1907.83+2046.5L1915.33+2023.19L1929.82+2004.96L1948.88+1988.41L1967.27+1980.97L1983.98+1988.82L2000.25+1980.13L2009.47+1971.67L2017.18+1956.17Z" opacity="1" fill="#ffe6af"/>
<path d="M1953.88+1616.97L2133.65+1610.82L2281.15+1607.18L2400.25+1798.2L2321.7+1801.04L2308.84+2065.08L2265.98+2061.51L2270.81+1802.09L2044.5+1808.91L1741.07+1814.55L1739.98+2059.73L1693.88+2064.1L1693.61+1816.45L1602.15+1813.73L1732.87+1623.82L1953.88+1616.97Z" opacity="1" fill="#693119"/>
<path d="M1935.96+1540.85L1974.55+1536.93L1966.56+1568.85L1972.17+1599.45L1994.71+1627.42L2010.54+1647.89L1988.23+1665.12L1948.42+1618.41L1941.51+1594.28C1941.51+1594.28+1936.85+1582.64+1935.46+1569.28C1934.07+1555.92+1935.96+1540.85+1935.96+1540.85Z" opacity="1" fill="#debd6c"/>
<path d="M2117.52+1534.22L2150.14+1540.46L2144.78+1573.69L2130.12+1610.33L2093.42+1662.82L2076+1647.73L2092.89+1620.78L2100.84+1599.18L2109.36+1566.7L2117.52+1534.22Z" opacity="1" fill="#debd6c"/>
<path d="M1905.56+1589.24L2163.71+1591.36L2141.15+1707.45L1929.91+1706.81L1905.56+1589.24Z" opacity="1" fill="#a9a7a2"/>
<path d="M2026.61+1646.7C2026.61+1646.7+2028.96+1638.39+2032.46+1637.74C2035.24+1637.23+2040.25+1638.48+2040.25+1638.48C2040.25+1638.48+2038.75+1634.12+2039.74+1631.01C2040.3+1629.24+2044.62+1627.15+2044.13+1629.5C2043.71+1631.5+2042.85+1632.97+2042.13+1634.36C2041.41+1635.74+2040.4+1636.54+2041.04+1638.56C2041.21+1639.1+2042.72+1638.18+2044.12+1638C2045.31+1637.84+2047.1+1637.15+2047.88+1637.27C2049.57+1637.52+2052.5+1638.25+2051.03+1639.77C2050.06+1640.79+2047.84+1643.05+2046.68+1645.26C2045.37+1647.75+2045.93+1650.34+2047.42+1652.13C2049.15+1654.2+2052.27+1654.63+2052.27+1654.63C2052.27+1654.63+2050.13+1659.19+2047.75+1661.21C2045.46+1663.15+2043.65+1661.22+2041.45+1660.51C2039.24+1659.81+2038.09+1660.13+2036.38+1661.11C2033.59+1662.7+2032.41+1664.8+2029.29+1662.86C2027.88+1661.97+2026.17+1659.29+2025.78+1656.58C2025.32+1653.31+2026.61+1646.7+2026.61+1646.7Z" opacity="1" fill="#fffcf5"/>
</g>
</svg>
